<svg width="20" height="20" viewBox="0 0 20 20" fill="none" xmlns="http://www.w3.org/2000/svg">
<path d="M17.5 5.83341V14.1667C17.5 16.6667 16.25 18.3334 13.3333 18.3334H6.66667C3.75 18.3334 2.5 16.6667 2.5 14.1667V5.83341C2.5 3.33341 3.75 1.66675 6.66667 1.66675H13.3333C16.25 1.66675 17.5 3.33341 17.5 5.83341Z" stroke="#003366" stroke-width="1.25" stroke-miterlimit="10" stroke-linecap="round" stroke-linejoin="round"/>
<path d="M12.9167 1.66675V8.21674C12.9167 8.5834 12.4834 8.76673 12.2167 8.52507L10.2834 6.74177C10.1251 6.59177 9.87502 6.59177 9.71669 6.74177L7.7834 8.52507C7.51673 8.76673 7.08337 8.5834 7.08337 8.21674V1.66675H12.9167Z" stroke="#003366" stroke-width="1.25" stroke-miterlimit="10" stroke-linecap="round" stroke-linejoin="round"/>
<path d="M11.0416 11.6667H14.5833" stroke="#003366" stroke-width="1.25" stroke-miterlimit="10" stroke-linecap="round" stroke-linejoin="round"/>
<path d="M7.5 15H14.5833" stroke="#003366" stroke-width="1.25" stroke-miterlimit="10" stroke-linecap="round" stroke-linejoin="round"/>
</svg>
