<svg width="179" height="257" viewBox="0 0 179 257" fill="none" xmlns="http://www.w3.org/2000/svg">
<path d="M117.439 165.916C116.695 169.09 115.951 172.196 115.139 175.37C113.177 183.27 109.862 190.36 103.571 195.762C103.436 195.897 103.233 195.965 103.097 196.1C102.421 196.64 101.744 196.572 101.271 195.965C100.865 195.425 101 194.817 101.609 194.277C103.165 192.791 104.653 191.305 106.006 189.617C108.306 186.849 109.998 183.675 111.08 180.164C112.162 176.518 113.11 172.871 114.057 169.225C114.124 169.022 114.192 168.752 114.26 168.55C115.748 163.418 116.898 154.302 116.492 148.63C115.883 139.716 112.636 131.951 105.803 125.941C100.865 121.552 94.9795 119.324 88.4175 118.851C83.9527 118.514 79.8261 119.594 75.7671 121.215C70.4228 123.375 65.755 126.482 61.4931 130.398C57.7048 133.842 54.6606 137.826 52.2252 142.35C50.1957 146.131 48.7751 150.115 47.828 154.234C47.4897 155.517 47.2868 156.868 47.1515 158.151C46.9485 161.324 46.5426 164.431 46.6779 167.604C46.9485 173.546 47.8956 179.421 50.331 184.958C52.834 190.698 56.4871 195.492 61.2902 199.476C61.7637 199.881 62.3049 200.286 61.9667 201.029C61.5608 201.907 60.8166 202.177 60.0048 201.502C57.0959 199.138 54.5253 196.505 52.2928 193.466C49.0457 188.942 46.8809 183.945 45.6632 178.543C45.325 177.058 44.9867 175.64 44.7838 174.087C44.6485 172.939 44.6485 172.466 44.5132 171.048C44.0396 166.456 44.1073 161.797 44.8514 157.273C46.7456 144.983 52.4281 134.72 62.102 126.752C66.0933 123.443 70.4905 120.809 75.2936 118.784C80.232 116.758 85.3057 115.948 90.7176 116.69C95.4531 117.298 99.7826 118.851 103.842 121.417C107.765 123.916 110.945 127.224 113.448 131.141C117.168 137.015 118.927 143.498 118.86 150.453C118.86 153.829 118.657 157.273 118.251 160.582C118.319 160.582 117.439 165.916 117.439 165.916Z" fill="#00CCCC"/>
<path d="M109.051 172.669C108.307 175.505 107.427 178.341 106.345 181.109C104.045 186.579 100.392 190.833 95.1151 193.737C89.3649 196.91 83.2088 197.653 76.8498 195.965C71.3026 194.479 66.9054 191.238 63.5229 186.579C61.2228 183.473 59.7345 179.961 58.7198 176.248C56.6903 169.09 56.3521 161.797 57.2315 154.505C58.111 147.347 60.3434 140.594 64.6053 134.652C67.8525 130.128 71.9114 126.684 77.1204 124.659C81.9912 122.768 86.9972 122.295 92.0709 123.511C99.7153 125.266 105.398 129.723 109.051 136.678C110.336 139.109 111.148 141.675 111.689 144.376C112.772 149.238 112.433 154.167 112.027 159.029C111.96 159.569 111.892 160.177 111.622 160.649C111.351 161.054 110.877 161.46 110.404 161.46C109.727 161.527 109.321 161.054 109.389 160.312C109.524 158.961 109.795 157.678 109.795 156.328C109.863 153.087 110.066 149.845 109.66 146.672C108.442 138.231 104.451 131.546 96.6034 127.63C92.4092 125.536 87.8766 124.861 83.2088 125.604C75.0909 126.819 69.3407 131.411 65.1465 138.164C62.8464 141.945 61.3581 145.996 60.411 150.318C59.6669 153.627 59.1257 157.003 59.1933 160.447C59.261 163.013 59.1933 165.579 59.5316 168.145C60.2081 173.749 61.4934 179.219 64.6729 184.013C69.8819 191.846 77.1881 195.425 86.5237 194.209C92.5444 193.399 97.4152 190.293 101.068 185.431C103.436 182.325 104.924 178.881 105.871 175.1C106.142 174.087 106.413 173.141 106.683 172.061C107.224 170.035 109.389 171.386 109.051 172.669Z" fill="#00CCCC"/>
<path d="M138.207 147.347C138.207 147.347 136.99 144.443 136.516 142.89C135.299 138.906 134.013 134.99 132.863 131.006C131.781 127.089 130.901 123.038 129.751 119.122C127.519 111.761 123.595 105.617 116.966 101.43C113.718 99.4042 110.201 97.9862 106.345 97.5135C103.706 97.2434 101.068 96.9733 98.4297 97.1084C93.4237 97.311 88.8235 99.0666 84.6969 101.903C77.729 106.629 71.37 112.099 65.4169 117.974C61.8991 121.417 58.5166 125.064 55.0665 128.643C54.4577 129.25 53.9841 129.993 53.3753 130.668C52.7665 131.411 51.9547 131.614 51.4135 131.073C50.8046 130.466 50.9399 129.79 51.4811 129.183C54.9989 124.794 58.8549 120.742 62.9815 116.961C66.4316 113.72 69.9494 110.478 73.5348 107.372C77.3908 104.063 81.3144 100.957 85.7793 98.4589C90.1089 96.028 94.7766 94.8801 99.715 94.745C104.45 94.61 109.051 95.3527 113.516 97.1084C117.845 98.7965 121.566 101.43 124.61 104.874C128.466 109.195 130.901 114.327 132.39 119.932C133.675 124.996 135.028 130.128 136.516 135.125C137.734 139.176 139.087 143.16 140.575 147.077C144.161 156.395 148.828 165.106 155.729 172.399C158.029 174.83 160.464 177.058 163.102 179.151C164.32 180.097 166.891 181.987 169.191 183.473C170.341 184.216 171.491 184.958 172.641 185.634C173.453 186.174 173.723 186.849 173.317 187.457C172.912 188.132 172.235 188.2 171.356 187.659C167.161 185.026 164.388 183.068 163.373 182.257L159.652 179.421C154.037 174.762 149.437 169.225 145.649 163.013C142.943 158.691 140.846 154.099 138.884 149.373C138.681 148.765 138.478 148.157 138.207 147.347Z" fill="#00CCCC"/>
<path d="M21.9861 129.318C23.3391 124.794 24.4892 120.269 26.1127 115.813C28.8864 108.115 32.5394 100.89 37.4778 94.2724C42.4839 87.5199 48.1664 81.3076 54.2548 75.5004C59.8021 70.2335 65.5523 65.3042 71.776 60.8475C76.8497 57.2012 82.3293 54.3651 88.2824 52.4069C97.0092 49.5708 105.871 49.0306 114.936 50.4487C119.536 51.1914 124.069 52.4069 128.331 54.1625C135.163 56.9986 141.319 60.9826 146.664 66.0469C148.49 67.7351 150.114 69.6258 151.805 71.4489C152.82 72.5293 151.399 74.3525 150.182 73.2046C149.843 72.867 149.573 72.4618 149.234 72.1242C143.958 66.1145 137.734 61.3202 130.563 57.8089C126.437 55.7831 122.107 54.3651 117.575 53.3522C113.651 52.4744 109.727 52.0693 105.736 52.0693C101.812 52.0693 97.8886 52.4069 94.0326 53.2847C85.3059 55.2429 77.5938 59.2944 70.5583 64.6964C61.4933 71.6515 53.0372 79.3494 45.5281 87.9925C41.6044 92.4492 37.8837 97.1759 34.9748 102.375C32.9453 106.022 31.1188 109.871 29.4952 113.787C27.9393 117.568 26.7892 121.485 25.5039 125.401C25.0303 126.887 24.6921 128.508 24.2862 130.061C23.745 132.086 21.4449 131.276 21.9861 129.318Z" fill="#00CCCC"/>
<path d="M4.73535 162.405C5.00595 157.746 5.0736 153.086 5.54714 148.495C6.15599 142.823 6.90013 137.15 8.25311 131.546C8.92961 128.71 9.40315 125.806 10.2149 123.038C11.2973 119.189 12.515 115.407 13.868 111.626C14.9504 108.52 16.3034 105.549 17.5887 102.578C19.7535 97.6484 22.5271 93.1242 25.5713 88.6676C29.6303 82.8604 34.1628 77.5259 39.1012 72.394C44.0396 67.1946 49.3162 62.2653 54.8635 57.7411C58.7871 54.5675 62.7784 51.5964 66.905 48.6928C70.761 45.9918 74.9553 43.6959 79.3525 41.8728C82.6673 40.4547 85.9821 39.3068 89.3646 38.0238C89.6352 37.8888 89.9734 37.8213 90.3117 37.8213C91.0558 37.7538 91.5294 38.1589 91.6647 38.8341C91.8 39.5094 91.3941 39.9145 90.7852 40.1171C88.5528 40.9274 86.3204 41.5351 84.1556 42.4805C81.382 43.6284 78.676 44.8439 76.0377 46.1944C67.9198 50.3134 60.8166 55.918 53.9164 61.7926C47.2191 67.5998 40.9277 73.7445 35.1099 80.497C29.9009 86.5743 25.2331 92.9892 21.58 100.147C19.1446 104.874 17.0475 109.668 15.4916 114.732C14.1386 119.189 12.6503 123.578 11.6356 128.102C10.4855 132.829 9.67375 137.556 8.92961 142.35C7.64427 150.655 7.17073 158.961 7.44132 167.334C7.50897 170.035 7.84722 172.804 7.98252 175.505C7.98252 175.977 7.91487 176.585 7.64427 176.923C7.44132 177.193 6.76483 177.328 6.56188 177.193C6.15599 176.855 5.68244 176.315 5.68244 175.842C5.47949 173.749 5.3442 171.723 5.27655 169.63C5.2089 167.199 5.27655 164.836 5.27655 162.405C5.00595 162.405 4.87065 162.405 4.73535 162.405Z" fill="#00CCCC"/>
<path d="M30.9834 154.504C31.7275 150.453 32.2011 146.334 33.2158 142.35C35.9218 131.478 40.9278 121.755 48.5722 113.517C52.0223 109.803 55.6077 106.157 59.3284 102.645C64.4021 97.851 69.8141 93.5294 75.5643 89.613C79.8938 86.6419 84.5616 84.346 89.703 83.0631C95.7238 81.5775 101.812 81.375 107.968 82.2528C112.771 82.928 117.439 84.346 121.769 86.5744C128.128 89.8156 133.337 94.3397 137.531 100.147C140.643 104.536 142.875 109.398 144.499 114.53C144.702 115.272 144.905 116.015 145.108 116.826C145.243 117.568 144.905 118.109 144.228 118.311C143.552 118.446 143.011 118.176 142.808 117.433C141.725 113.449 140.305 109.6 138.343 105.954C135.569 100.89 131.916 96.5005 127.384 92.9892C123.054 89.613 118.319 87.2496 113.042 85.8316C107.427 84.2785 101.745 83.8734 95.9944 84.4136C89.9059 85.0213 84.2234 87.047 79.0144 90.3558C71.573 95.015 64.9433 100.687 58.5167 106.697C53.6459 111.289 49.1134 116.218 45.1898 121.687C42.6191 125.266 40.5896 129.115 38.8984 133.167C37.2071 137.151 35.8541 141.27 35.0424 145.524C34.2982 149.17 34.0276 152.884 33.4864 156.53C33.4188 157.07 33.1482 157.746 32.7423 158.016C31.9305 158.556 31.051 157.881 31.051 156.8C31.051 154.302 31.4569 154.572 30.9834 154.504Z" fill="#00CCCC"/>
<path d="M147.408 87.2495C149.776 90.9634 151.67 94.8798 153.226 98.9313C154.173 101.362 154.917 103.928 155.661 106.427C157.149 111.423 158.435 116.488 159.991 121.485C161.479 126.279 163.103 130.938 165.673 135.327C168.379 140.054 172.032 143.903 176.632 146.807C176.835 146.942 177.038 147.144 177.309 147.212C178.121 147.617 178.391 148.292 177.985 148.967C177.579 149.71 176.768 149.71 176.091 149.237C174.265 147.954 172.37 146.739 170.679 145.321C166.688 141.877 163.847 137.488 161.614 132.694C159.314 127.629 157.758 122.362 156.27 117.096C155.12 112.977 153.97 108.925 152.752 104.874C150.858 98.5262 148.152 92.584 144.499 87.0469C140.643 81.1723 135.772 76.3105 129.954 72.394C125.693 69.558 121.025 67.5322 116.019 66.3843C109.795 64.8988 103.571 64.6962 97.4151 66.1142C94.5738 66.7219 91.8002 67.8699 89.1619 69.0178C86.3883 70.3008 83.6147 71.7188 81.044 73.3394C77.3909 75.7703 73.8732 78.4038 70.3554 81.1047C67.9877 82.9279 65.8229 84.9537 63.5905 86.9119C62.9816 87.3846 62.3728 87.5871 61.7639 86.9119C61.2227 86.3042 61.2904 85.6964 61.8992 85.2238C64.267 83.198 66.4994 81.0372 69.0024 79.1465C72.9937 76.1079 77.0527 73.2043 81.2469 70.4358C84.6294 68.2075 88.2825 66.6544 92.1385 65.2364C96.8063 63.4807 101.609 62.6704 106.615 62.8055C111.419 62.9405 116.086 63.6833 120.619 65.1689C128.872 67.9374 135.772 72.7317 141.59 79.2141C142.672 80.362 143.62 81.6449 144.634 82.8604C144.296 82.8604 146.596 85.9665 147.408 87.2495Z" fill="#00CCCC"/>
<path d="M56.0137 214.737C48.9105 209.943 43.228 203.865 39.0337 196.37C37.1395 192.926 35.5159 189.347 34.4336 185.566L33.4865 182.595C32.0658 177.125 31.254 171.521 30.9834 165.849C30.9834 165.241 30.8481 164.701 30.8481 164.093C30.8481 163.08 31.3217 162.405 32.0658 162.405C32.8776 162.405 33.2835 162.945 33.3512 164.026C33.4188 165.781 33.4865 167.604 33.6894 169.36C33.96 171.791 34.3659 174.222 34.7042 176.72C34.7718 177.058 34.8395 177.396 34.8395 177.801C34.9748 178.543 34.9071 178.408 35.2453 179.489C35.6512 180.974 35.9895 182.527 36.463 184.013C39.7102 194.682 45.4604 203.73 54.3901 210.55C56.8931 212.509 59.802 213.927 62.5757 215.547C66.0258 217.505 69.8141 218.653 73.6701 219.464C79.3527 220.612 85.0352 220.814 90.7854 219.801C94.912 219.058 98.971 218.046 103.03 217.438C107.765 216.763 112.636 216.357 117.439 215.885C123.325 215.345 129.21 215.682 135.096 216.357C139.899 216.898 144.634 217.775 149.167 219.531C151.332 220.341 153.564 221.219 155.729 222.097C156.811 222.57 157.217 223.718 156.338 224.19C155.864 224.46 155.052 224.393 154.511 224.19C151.805 223.245 149.234 222.03 146.461 221.152C140.575 219.261 134.487 218.316 128.263 218.248C123.054 218.181 117.845 218.316 112.636 218.653C109.051 218.856 105.465 219.531 101.88 220.139C97.8209 220.814 93.762 221.962 89.703 222.435C86.05 222.84 82.3293 222.772 78.6762 222.637C74.4819 222.502 70.423 221.422 66.4993 220.004C66.2964 219.734 60.2756 217.573 56.0137 214.737Z" fill="#00CCCC"/>
<path d="M144.702 76.8507C144.499 76.5806 144.296 76.3781 144.093 76.1755C139.763 71.3137 134.689 67.3297 128.939 64.3586C124.136 61.8602 119.063 60.2396 113.718 59.3618C109.321 58.619 104.856 58.3489 100.459 58.9566C97.3471 59.3618 94.1676 60.037 91.1233 60.9824C83.5466 63.2782 77.1199 67.7349 71.0315 72.7317C65.349 77.3234 60.0723 82.3203 54.931 87.5197C51.1426 91.3011 47.8955 95.5551 44.8512 99.9443C41.9423 104.198 39.2363 108.587 36.4627 112.909C35.9892 113.584 35.3127 113.854 34.7038 113.449C34.0274 112.977 33.9597 112.369 34.4332 111.626C35.7186 109.465 36.9363 107.237 38.4246 105.211C41.6041 100.552 44.8512 95.9603 48.2337 91.4361C51.4132 87.182 55.3369 83.6032 59.1929 79.9569C64.6048 74.7575 70.2874 69.8957 76.4435 65.6416C80.1642 63.0081 84.2231 60.9824 88.485 59.3618C93.3558 57.5386 98.2942 56.5257 103.436 56.3231C108.915 56.1206 114.259 56.7283 119.604 58.1463C128.263 60.5097 135.84 64.8313 142.334 70.9761C143.822 72.3941 145.243 73.8796 146.663 75.3652C147.881 76.6481 146.055 78.2012 144.702 76.8507Z" fill="#00CCCC"/>
<path d="M40.8602 174.897C41.0632 176.45 39.0337 176.923 38.6955 175.235C38.6278 175.032 36.2601 165.849 37.8837 152.344C38.4925 147.009 39.8455 141.81 41.672 136.745C43.9721 130.601 47.2193 124.996 51.4135 119.932C55.7431 114.732 60.4109 110.005 65.5522 105.549C70.423 101.295 75.429 97.1757 80.9086 93.7319C87.3353 89.6804 94.4385 87.9248 102.015 88.1949C104.451 88.3299 106.886 88.6676 109.321 89.0052C110.404 89.1402 110.81 89.748 110.607 90.5583C110.404 91.301 109.795 91.5036 108.78 91.301C102.15 89.9505 95.5885 90.2206 89.1618 92.3814C85.2382 93.7319 81.7881 95.8252 78.4732 98.2561C73.3995 102.038 68.4612 106.021 63.861 110.411C59.2609 114.8 54.796 119.391 51.0076 124.523C48.437 128.035 46.4075 131.748 44.7163 135.732C42.9574 139.919 41.7397 144.241 40.8602 148.697C40.2514 151.736 39.9808 154.842 39.9132 157.881C39.7779 161.662 39.9132 165.443 40.1161 169.157C40.1838 170.373 40.4544 171.723 40.8602 174.897Z" fill="#00CCCC"/>
<path d="M51.481 52.3393C51.8869 51.8666 52.2252 51.3264 52.6987 51.0563C54.3223 50.0434 55.6753 48.5579 57.2312 47.4099C61.9667 43.8311 66.9051 40.5899 72.317 38.024C75.4965 36.5384 78.8113 35.323 82.0585 34.1075C86.7263 32.3519 91.6647 31.4065 96.6031 30.7988C101.474 30.1911 106.412 30.056 111.351 30.5962C115.545 31.0689 119.807 31.6091 123.866 32.5545C127.789 33.4998 131.645 34.8503 135.434 36.2683C139.763 37.8214 143.755 40.0497 147.611 42.4806C151.94 45.1816 155.932 48.2878 159.72 51.7315C160.329 52.3393 160.938 52.8795 161.546 53.4872C162.358 54.2975 162.494 55.0403 161.885 55.5805C161.343 56.0531 160.599 55.9856 159.855 55.2428C156.743 52.1367 153.361 49.3682 149.775 46.8697C145.243 43.6961 140.44 40.9951 135.366 38.8343C131.578 37.2137 127.654 35.8632 123.663 34.9178C119.13 33.8374 114.463 33.1622 109.727 32.8921C104.653 32.622 99.5797 32.8246 94.506 33.5673C89.3646 34.3101 84.3586 35.7281 79.4878 37.5513C72.0464 40.3873 65.2138 44.3713 58.9225 49.1656C55.8106 51.5965 52.7664 54.0949 49.7222 56.5933C48.978 57.2011 48.0986 57.2686 47.6927 56.8634C47.1515 56.2557 47.3544 55.4454 48.1662 54.7702C48.9104 54.1624 49.6545 53.4872 50.3986 52.947C50.8045 52.6769 51.2104 52.5418 51.481 52.3393Z" fill="#00CCCC"/>
<path d="M106.48 4.73413C108.983 4.73413 111.418 4.73413 113.922 4.73413C115.004 4.73413 115.41 5.20681 115.342 6.0171C115.274 6.75988 114.666 7.02998 113.719 7.02998C108.036 6.75988 102.421 6.96245 96.8063 8.24543C89.0266 9.93355 81.8558 13.0397 75.0232 17.0237C67.92 21.0752 61.4257 26.0045 55.2696 31.339C47.2193 38.294 40.0485 45.9919 32.9453 53.8248C28.0746 59.2268 22.7979 64.2911 17.7242 69.4906C16.7771 70.4359 15.7624 71.3813 14.8153 72.3266C14.2065 72.9343 13.5976 73.2044 12.8535 72.5292C12.2446 71.989 12.3799 71.3137 13.1917 70.571C16.5065 67.3298 19.8213 64.1561 23.0685 60.8474C27.2628 56.4582 31.3894 51.8666 35.516 47.3424C41.6044 40.7249 48.0311 34.2425 54.999 28.3679C61.0198 23.236 67.3788 18.5767 74.279 14.6603C79.2174 11.8243 84.3588 9.46088 89.7707 7.70523C95.2503 5.88205 100.798 4.86918 106.48 4.73413Z" fill="#00CCCC"/>
<path d="M41.8747 179.421C42.4159 181.177 42.8894 182.865 43.4983 184.553C45.4601 190.023 48.2337 195.02 52.0221 199.476C56.2164 204.338 61.2901 208.052 67.1755 210.55C73.061 213.049 79.2171 214.197 85.5761 213.656C88.9586 213.386 92.2734 212.711 95.5882 212.103C103.841 210.618 112.095 209.537 120.483 209.47C125.76 209.402 131.036 209.537 136.245 210.415C138.207 210.753 140.169 211.226 142.131 211.698C142.807 211.833 143.213 212.306 143.078 213.049C142.943 213.791 142.266 214.129 141.387 213.926C131.442 211.361 121.363 211.428 111.283 212.373C106.344 212.846 101.474 213.656 96.5353 214.332C92.8823 214.872 89.2968 215.682 85.6438 216.087C81.3819 216.56 77.12 216.02 72.9257 215.007C67.2432 213.656 62.0342 211.158 57.2987 207.714C53.2398 204.743 49.7897 201.097 46.9484 196.91C43.6336 192.048 41.2659 186.849 39.7776 181.177C39.6423 180.772 39.507 180.367 39.4393 179.961C39.304 178.746 41.6041 178.476 41.8747 179.421Z" fill="#00CCCC"/>
<path d="M158.976 187.322L153.496 182.73C149.099 178.678 145.243 174.222 141.928 169.292C139.29 165.376 137.057 161.325 135.163 157.07C134.757 156.125 134.351 155.112 133.945 154.099C131.916 149.373 131.037 147.482 127.925 137.151C126.504 132.491 125.151 127.832 124.001 123.105C122.851 118.311 120.957 113.854 117.507 110.276C114.26 106.899 110.336 104.806 105.668 103.928C102.218 103.253 98.7002 103.253 95.3177 104.063C93.5588 104.469 91.9353 105.414 90.244 106.089C89.7028 106.292 89.0263 106.494 88.5528 106.359C87.6057 106.089 87.5381 104.874 88.5528 104.333C89.9058 103.591 91.2588 102.78 92.7471 102.308C98.2267 100.485 103.842 100.62 109.321 102.308C114.868 103.996 119.198 107.44 122.31 112.369C124.407 115.678 125.625 119.324 126.504 123.038C127.451 126.954 128.601 130.803 129.751 134.652C130.563 137.421 131.375 140.122 132.254 142.823C132.863 144.713 133.607 146.604 134.216 148.495C135.704 151.871 136.178 153.424 138.072 157.341C142.334 166.321 148.084 174.222 155.39 181.042C155.931 181.514 156.473 181.987 157.014 182.46C157.014 182.46 158.84 183.945 160.329 185.161C161.952 186.781 160.329 188.334 158.976 187.322Z" fill="#00CCCC"/>
<path d="M69.6787 161.595C69.814 156.193 70.7611 151.061 72.9935 146.131C74.5495 142.755 76.7142 139.717 79.9614 137.758C85.6439 134.315 93.4236 135.665 97.009 141.675C98.6326 144.376 99.3767 147.279 99.4444 150.385C99.4444 152.749 99.512 155.18 99.1738 157.476C98.7003 160.447 97.8885 163.283 97.212 166.186C96.8061 168.009 96.4002 169.833 95.859 171.656C94.9119 175.032 93.6942 178.341 90.9882 180.839C85.7792 185.498 77.5937 184.958 73.4671 178.138C71.8435 175.437 70.8964 172.466 70.4905 169.36C70.1523 166.794 69.9493 164.161 69.6787 161.595ZM72.2494 163.35C72.3847 164.566 72.5876 166.456 72.7906 168.347C73.1965 171.588 74.0759 174.627 75.9024 177.328C79.2173 182.325 85.3057 182.662 89.3647 179.084C91.5294 177.193 92.6118 174.627 93.356 171.993C94.506 167.739 95.5884 163.418 96.4678 159.029C97.2796 154.977 97.5502 150.926 96.6031 146.874C96.0619 144.511 95.0472 142.418 93.2207 140.729C89.297 137.016 82.6674 137.488 78.6761 141.742C76.376 144.173 74.9554 147.009 73.9406 150.183C72.5876 154.302 72.1817 158.421 72.2494 163.35Z" fill="#00CCCC"/>
<path d="M94.9798 131.344C95.5887 131.614 96.1299 131.951 96.6711 132.289C100.662 134.922 103.301 138.569 104.721 143.16C106.277 148.36 106.277 153.627 105.398 158.894C104.857 162.27 104.112 165.579 103.301 168.887C102.489 172.061 101.677 175.235 100.459 178.273C98.4299 183.338 94.9122 187.187 89.6355 189.145C84.6971 190.968 79.8264 190.765 75.1586 188.335C71.9114 186.714 69.4761 184.148 67.7172 181.042C65.6877 177.531 64.6053 173.749 63.9965 169.765C63.32 165.106 63.32 160.447 63.6582 155.72C63.6582 155.585 63.6582 155.45 63.6582 155.315C63.7935 154.167 64.3347 153.492 65.1465 153.627C65.8906 153.694 66.0936 154.234 66.0936 155.45C66.0259 159.501 65.823 163.553 66.0936 167.537C66.4318 172.061 67.6495 176.383 70.0849 180.299C73.6027 185.971 79.8264 189.01 86.456 187.592C92.1386 186.376 95.9946 182.865 98.1593 177.598C99.3094 174.762 99.9859 171.723 100.798 168.752C101.609 165.781 102.286 162.878 102.895 159.839C103.707 155.855 103.91 151.804 103.368 147.82C102.489 141.54 99.7153 136.475 93.8974 133.437C92.2739 132.626 93.2209 130.466 94.9798 131.344Z" fill="#00CCCC"/>
<path d="M50.6016 163.823C51.0075 160.379 51.4134 156.125 51.9545 151.871C52.0898 150.926 52.3604 149.98 52.4957 149.035C52.631 148.225 53.2399 147.617 53.9164 147.752C54.6605 147.887 54.9988 148.427 54.8635 149.373C54.4576 152.344 53.984 155.315 53.5781 158.353C52.9016 163.148 53.0369 167.942 53.7811 172.669C55.2694 182.122 59.4636 190.158 67.2433 195.965C71.6405 199.206 76.7142 200.692 82.1938 200.962C86.0498 201.097 89.7705 200.151 93.4912 199.476C99.1061 198.463 104.789 197.585 110.539 197.315C114.26 197.113 117.98 196.978 121.701 196.843C122.58 196.843 123.46 196.91 124.339 196.91C125.083 196.978 125.692 197.315 125.692 198.126C125.76 198.801 125.083 199.274 124.204 199.341C121.16 199.341 118.048 199.274 115.004 199.476C110.133 199.814 105.262 200.219 100.391 200.894C96.1972 201.434 92.0029 202.515 87.8087 203.19C83.6144 203.865 79.4878 203.595 75.3612 202.515C66.4315 200.151 60.2754 194.412 55.8106 186.579C52.9693 181.582 51.5487 176.112 51.0751 170.373C50.9398 168.347 50.8045 166.524 50.6016 163.823Z" fill="#00CCCC"/>
<path d="M127.654 155.855C127.113 154.572 125.219 150.318 124.61 148.562C123.19 144.376 121.972 140.054 120.416 135.935C118.454 130.803 115.478 126.279 111.486 122.43C107.563 118.649 102.962 115.88 97.7534 114.192C92.6121 112.504 87.2678 112.099 81.9235 112.774C81.3146 112.842 80.7734 112.909 80.1646 112.909C79.4881 112.977 78.8793 112.774 78.8116 112.031C78.6763 111.221 79.1499 110.816 79.894 110.681C81.1793 110.478 82.4647 110.276 83.75 110.141C87.5384 109.736 91.1914 110.208 94.9121 110.951C99.5799 111.896 103.842 113.72 107.766 116.353C112.907 119.729 116.898 124.186 119.942 129.453C122.107 133.167 123.392 137.151 124.678 141.202C125.828 144.849 127.248 148.495 128.534 152.141C129.007 153.559 130.766 157.408 130.969 157.881C133.134 162.81 135.163 166.186 137.666 170.17C141.522 176.383 146.393 181.852 151.805 186.782C152.076 187.052 152.346 187.322 152.617 187.592C153.632 188.537 152.685 190.225 151.332 189.618C140.643 180.232 132.931 168.955 127.654 155.855Z" fill="#00CCCC"/>
<path d="M112.839 44.7765C119.198 44.9116 125.354 45.9244 131.24 48.4229C140.44 52.3393 148.423 58.0789 155.12 65.4391C155.729 66.1144 156.405 66.7896 156.947 67.4649C159.044 70.0308 162.156 74.2849 161.817 73.8798C165.267 78.8766 168.176 84.2111 170.476 89.8157C172.641 95.1501 174.332 100.687 175.753 106.292C176.294 108.453 176.971 110.613 177.647 112.707C177.85 113.449 177.918 114.125 177.038 114.53C176.227 114.867 175.618 114.462 175.347 113.449C174.4 110.208 173.656 106.967 172.641 103.793C171.356 99.6068 170.071 95.4202 168.447 91.3012C166.012 84.9539 162.697 79.0792 158.705 73.6097C158.232 72.9344 157.691 72.2592 157.217 71.5839C151.196 63.8861 144.161 57.6738 135.569 53.0146C131.713 50.9213 127.722 49.0981 123.393 48.3553C119.198 47.6126 114.936 47.4775 110.674 47.0724C110.201 47.0048 109.727 47.0724 109.186 47.0724C108.442 47.0724 108.036 46.6672 108.036 45.9244C108.036 45.1817 108.442 44.7765 109.186 44.709C110.404 44.7765 111.622 44.7765 112.839 44.7765Z" fill="#00CCCC"/>
<path d="M83.141 229.187C77.2555 229.187 71.4377 228.309 65.8228 226.486C57.8402 223.853 50.8047 219.666 44.6486 213.926C39.3719 208.997 35.1777 203.393 32.0658 196.978C30.5099 193.804 29.4275 190.428 28.0745 187.119C27.601 185.904 30.0363 185.296 30.3746 186.444C33.6218 196.978 39.7102 206.769 48.6399 214.197C52.0224 217.033 55.8107 219.328 59.7344 221.287C65.1463 224.055 70.8965 225.608 76.8496 226.351C82.8028 227.094 88.7559 226.756 94.6414 225.473C98.2268 224.663 101.812 224.123 105.398 223.515C106.954 223.245 108.51 223.11 110.065 222.907C110.877 222.772 111.486 223.042 111.621 223.92C111.757 224.663 111.148 225.203 110.201 225.271C104.654 225.743 99.2416 226.959 93.8296 228.039C91.1236 228.579 88.2824 228.714 85.5088 228.985C84.697 229.187 83.9528 229.187 83.141 229.187Z" fill="#00CCCC"/>
<path d="M94.6412 1.29038C94.6412 2.03315 93.9647 2.30325 93.2882 2.4383C86.388 4.0589 79.8937 6.89495 73.7376 10.2712C67.8521 13.5124 62.3049 17.2938 57.0282 21.4803C50.5339 26.6122 44.3778 32.1493 38.6953 38.0915C34.1628 42.8182 29.8332 47.7475 25.436 52.5418C24.286 53.7573 23.1359 54.9727 21.9859 56.1882C21.1065 57.066 20.5653 57.201 19.8888 56.5933C19.3476 56.0531 19.4152 55.4454 20.227 54.5676C24.2183 50.246 28.2096 45.8568 32.2009 41.5352C38.56 34.6477 45.2573 28.0978 52.4957 22.0881C59.0577 16.6861 66.0256 11.7567 73.6023 7.70525C78.1348 5.27435 82.8026 3.2486 87.6734 1.56048C89.3646 0.952753 91.1911 0.547603 92.95 0.0749288C93.9647 -0.195171 94.6412 0.277504 94.6412 1.29038Z" fill="#00CCCC"/>
<path d="M0 140.392C0.338246 138.433 0.676493 136.138 1.15004 133.842C2.16478 129.183 3.04422 124.456 4.3972 119.864C5.81784 114.935 7.57672 110.073 9.40325 105.211C11.0945 100.552 13.3269 96.0953 15.8299 91.8412C18.7389 86.8444 22.0537 82.1852 25.7067 77.661C30.5775 71.6513 35.9894 66.1142 41.5367 60.7797C42.6191 59.7669 43.3632 59.7669 43.8367 60.8473C44.175 61.5225 43.7014 61.9952 43.3632 62.4003C40.2513 65.5065 37.0718 68.5451 34.0952 71.7188C28.1421 78.1337 22.7302 84.8861 18.2653 92.4489C14.8152 98.3236 11.9739 104.536 9.7415 110.951C8.25321 115.137 7.03553 119.324 5.95314 123.645C4.6678 128.71 3.72071 133.774 2.63832 138.906C2.50302 139.581 2.50302 140.257 2.36773 140.932C2.23243 141.675 1.82653 142.147 0.94709 142.08C0.0676493 142.012 0 141.405 0 140.392Z" fill="#00CCCC"/>
<path d="M177.106 165.511C174.941 163.62 172.641 161.73 170.611 159.704C167.432 156.463 164.794 152.816 162.764 148.765C161.343 145.929 160.058 143.025 158.84 140.122C157.893 137.826 157.081 135.53 156.405 133.167C155.931 131.478 155.187 129.925 154.781 128.17C153.902 124.253 152.752 120.472 151.67 116.623C150.858 113.787 150.114 110.883 149.099 108.182C147.069 102.78 144.228 97.716 140.44 93.3269C137.125 89.4104 136.043 88.4651 133.472 86.5069C133.134 86.2368 132.728 85.9667 132.39 85.6966C126.504 81.1724 119.874 78.2013 112.636 76.5807C108.306 75.6354 103.909 75.2977 99.512 75.3653C93.2206 75.4328 87.1322 76.6482 81.3143 79.0791C76.6465 81.0374 72.3846 83.7384 68.3257 86.7094C62.5078 91.0986 56.8929 95.6903 51.6839 100.822C45.9338 106.359 40.5895 112.234 36.1923 118.919C35.1775 120.472 34.2981 122.093 33.8245 122.903C33.2833 123.848 35.0422 125.604 35.7187 124.253C37.207 121.485 37.7482 120.067 40.0483 117.501C43.2954 113.787 46.272 109.803 49.7221 106.224C57.3665 98.2562 65.8226 91.0986 75.1582 85.0889C79.4878 82.2528 84.2232 80.2271 89.2293 79.0116C95.1824 77.6611 101.203 77.391 107.292 78.1338C112.23 78.7415 116.965 79.957 121.43 81.9827C126.978 84.4811 131.848 87.8574 136.043 92.2465L137.057 93.3269C138.681 95.3526 140.372 97.3784 141.86 99.5392C144.228 102.983 146.055 106.697 147.34 110.681C148.558 114.395 149.437 118.244 150.52 122.025C151.805 126.414 153.023 130.803 154.511 135.125C155.729 138.771 157.149 142.282 158.637 145.861C160.802 151.061 163.779 155.855 167.567 160.109C170.003 162.878 172.708 165.444 175.685 167.537C176.226 167.942 176.767 168.145 177.309 167.604C177.917 166.929 177.85 166.186 177.106 165.511Z" fill="#00CCCC"/>
<path d="M108.915 10.8789C114.53 11.2841 120.077 11.7567 125.692 12.2294C127.045 12.3645 128.398 12.6346 129.751 12.9047C130.766 13.1072 131.172 13.5799 131.037 14.3902C130.901 15.133 130.292 15.3356 129.21 15.2005C123.866 14.6603 118.522 14.0526 113.177 13.6474C110.336 13.4449 107.495 13.5799 104.653 13.715C101.068 13.85 97.6179 14.6603 94.2354 15.6732C87.4028 17.6989 81.1791 20.8726 75.1583 24.5865C69.8817 27.7601 64.9433 31.6091 60.2078 35.593C59.599 36.1332 58.9901 36.2683 58.3813 35.7281C57.8401 35.2554 57.9754 34.3101 58.6519 33.7699C64.0638 29.1782 69.6787 24.8566 75.9025 21.3453C79.4202 19.3871 82.938 17.4964 86.6587 15.8758C92.7471 13.1748 99.1062 11.4866 105.803 11.2165C106.818 11.149 107.901 11.149 108.915 11.0815C108.915 10.9464 108.915 10.9464 108.915 10.8789Z" fill="#00CCCC"/>
<path d="M77.8643 231.956C79.6231 232.226 81.382 232.496 83.2086 232.631C86.9969 232.969 90.8529 232.699 94.5736 232.023C102.759 230.47 111.012 229.052 119.333 228.782C125.016 228.647 130.698 228.85 136.313 229.727C140.237 230.335 143.958 231.416 147.611 232.969C148.558 233.374 148.964 233.914 148.693 234.657C148.355 235.4 147.678 235.602 146.664 235.264C144.364 234.454 141.996 233.576 139.628 232.969C135.096 231.753 130.495 231.28 125.76 231.213C120.213 231.145 114.733 231.213 109.254 232.023C105.262 232.563 101.271 233.374 97.2796 234.049C91.1912 235.129 85.1027 235.805 78.9466 234.589C78.4055 234.522 77.9319 234.387 77.4584 234.252C76.7819 234.049 76.376 233.644 76.5113 232.901C76.6466 232.158 77.1201 231.821 77.8643 231.956Z" fill="#00CCCC"/>
<path d="M151.196 81.3075C153.09 84.5487 155.052 87.6548 156.743 90.9636C159.044 95.4202 160.532 100.282 161.952 105.076C163.238 109.465 164.32 113.922 165.673 118.311C167.161 123.241 168.785 128.17 171.423 132.626C173.182 135.598 175.415 138.096 178.188 140.189C178.662 140.527 179.068 140.865 178.797 141.405C178.459 142.08 177.85 142.35 177.174 142.147C176.632 142.012 176.159 141.675 175.753 141.337C172.032 138.299 169.326 134.517 167.364 130.196C165.064 124.996 163.441 119.527 161.885 114.057C160.397 108.79 158.976 103.523 157.149 98.3913C155.12 92.6517 152.076 87.5198 148.896 82.3204C147.949 80.5647 150.249 79.6869 151.196 81.3075Z" fill="#00CCCC"/>
<path d="M94.2353 247.486C92.1381 247.621 85.7115 247.554 84.0202 247.486C79.826 247.284 75.767 246.406 71.7081 245.258C67.5138 244.11 63.5225 242.49 59.7341 240.329C56.487 238.438 53.4428 236.277 50.2632 234.184C50.1279 234.116 50.0603 234.049 49.925 233.981C49.3162 233.509 49.0456 232.834 49.5868 232.226C50.1279 231.618 50.7368 231.686 51.4133 232.158C53.7134 233.711 55.8781 235.332 58.2459 236.817C61.6283 238.911 65.2137 240.734 69.0697 241.882C72.5199 242.895 76.0376 243.908 79.5554 244.583C81.5172 244.92 88.0115 245.528 91.2587 245.326C95.8589 245.056 100.391 244.178 104.924 243.367C108.036 242.827 111.283 242.49 114.395 242.152C115.139 242.084 115.748 242.287 115.883 243.165C115.951 243.908 115.477 244.448 114.598 244.515C109.118 244.988 103.774 245.933 98.3619 247.014C97.0765 247.284 95.6559 247.419 94.2353 247.486Z" fill="#00CCCC"/>
<path d="M81.1113 209.875C75.6317 209.47 70.5581 207.917 65.8226 205.418C65.0108 205.013 64.7402 204.338 65.0785 203.73C65.4844 203.055 66.1608 202.92 66.9726 203.325C71.5051 205.688 76.3082 207.106 81.4496 207.309C85.1703 207.512 88.8234 206.971 92.4764 206.161C96.4001 205.351 100.391 204.743 104.383 204.135C111.689 203.055 118.995 202.852 126.369 202.92C128.06 202.92 129.751 203.055 131.442 203.122C131.781 203.122 132.187 203.122 132.389 203.325C132.728 203.663 133.269 204.203 133.201 204.54C133.134 204.946 132.525 205.418 132.051 205.486C131.172 205.621 130.292 205.486 129.413 205.418C122.919 205.081 116.357 205.081 109.862 205.958C105.127 206.566 100.391 207.174 95.6559 207.917C93.6941 208.187 91.7323 208.93 89.7704 209.2C86.9292 209.537 84.0203 209.672 81.1113 209.875Z" fill="#00CCCC"/>
<path d="M116.56 91.301C117.439 91.7062 118.318 91.9763 119.063 92.3814C125.625 95.8927 130.766 100.89 134.419 107.372C136.448 110.951 137.801 114.8 138.884 118.851C140.237 124.186 141.793 129.453 143.281 134.652C144.16 137.623 145.243 140.527 146.258 143.498C146.393 143.97 146.46 144.511 146.325 144.916C146.19 145.253 145.649 145.591 145.378 145.524C144.972 145.456 144.363 145.118 144.228 144.713C143.349 142.485 142.537 140.189 141.793 137.826C140.846 134.855 139.966 131.884 139.154 128.912C138.41 126.211 137.666 123.443 136.99 120.742C135.231 113.179 132.119 106.359 126.572 100.755C123.73 97.8509 120.483 95.5551 116.762 93.867C115.545 93.3268 115.207 92.6515 115.815 91.9088C115.883 91.7062 116.221 91.5036 116.56 91.301Z" fill="#00CCCC"/>
<path d="M14.8829 204.608C16.98 209.875 19.6183 214.872 22.7302 219.666C26.6538 225.676 31.1187 231.145 36.26 236.075C36.5983 236.412 36.9365 236.75 37.1395 237.02C37.613 237.56 36.1924 239.451 35.2453 238.438C34.9747 238.168 34.7041 237.898 34.4335 237.628C34.3659 237.56 32.7423 236.007 32.7423 235.94C28.4804 231.618 24.6244 226.891 21.2419 221.827C18.6712 217.978 16.3712 213.927 14.477 209.673C13.3946 207.242 12.3798 204.743 11.3651 202.245C11.2975 202.042 9.60623 197.383 8.99739 194.885C8.25324 191.508 7.44145 188.2 6.69731 184.823C6.62966 184.418 6.56201 184.081 6.56201 183.675C6.56201 183 6.83261 182.527 7.57675 182.46C8.32089 182.392 8.79444 182.663 8.92974 183.405C9.74153 187.052 10.4857 190.63 11.2975 194.277C11.5004 195.222 11.6357 196.235 11.974 197.315C12.8534 199.679 12.921 199.679 14.8829 204.608Z" fill="#00CCCC"/>
<path d="M101.677 239.181C101.203 239.451 100.798 239.924 100.324 239.991C95.318 241.004 90.2443 241.544 85.1706 241.139C77.9321 240.599 71.0995 238.776 64.5375 235.602C57.6373 232.158 51.6165 227.567 46.2722 222.029C46.0016 221.759 45.731 221.489 45.4604 221.219C44.9869 220.611 44.7839 220.004 45.3251 219.396C45.934 218.788 46.5428 218.991 47.084 219.531C49.1812 221.557 51.2783 223.583 53.4431 225.473C58.2462 229.66 63.5904 232.901 69.4759 235.264C74.7526 237.358 80.2998 238.506 85.9824 238.843C90.2443 239.046 94.5062 238.708 98.7004 237.898C99.3093 237.763 99.9181 237.628 100.256 238.438C100.392 238.708 100.933 238.776 101.339 238.911C101.542 238.978 101.609 239.046 101.677 239.181Z" fill="#00CCCC"/>
<path d="M156.473 77.5261C158.232 80.3621 160.126 83.1307 161.614 86.1018C163.508 90.0857 165.2 94.1372 166.756 98.2563C167.838 101.227 168.514 104.266 169.462 107.305C170.95 112.166 172.371 116.961 173.926 121.822C174.874 124.861 176.159 127.832 178.053 130.466C178.459 131.073 178.594 131.816 177.85 132.356C177.241 132.829 176.497 132.626 176.024 131.749C174.738 129.318 173.318 126.954 172.371 124.388C170.882 120.337 169.597 116.218 168.379 112.099C167.229 108.385 166.417 104.604 165.2 100.957C164.117 97.581 162.9 94.2723 161.479 91.0311C159.585 86.5744 157.014 82.5229 154.376 78.4039C153.226 76.9859 155.593 76.1756 156.473 77.5261Z" fill="#00CCCC"/>
<path d="M26.7215 182.325C26.3156 180.704 26.045 179.151 25.7744 177.598C24.9626 173.479 24.692 169.292 24.4891 165.106C24.2185 159.704 24.6244 154.302 25.3008 148.967C25.9773 143.7 27.3303 138.636 29.0216 133.639C29.5628 132.086 30.1716 130.601 30.7804 129.115L31.7275 127.224C31.9305 126.819 32.1334 126.414 32.2687 126.144C33.0805 124.388 35.0423 125.334 34.3658 127.022C33.0805 130.06 31.7275 133.099 30.7128 136.205C29.0216 141.202 27.8715 146.334 27.3303 151.601C26.7215 157.003 26.4509 162.472 27.0597 167.874C27.4656 171.453 27.9392 174.965 28.4127 178.543C28.548 179.624 28.751 180.637 29.0892 181.717C29.3598 182.73 27.0597 183.54 26.7215 182.325Z" fill="#00CCCC"/>
<path d="M140.237 202.785C143.484 205.351 146.596 208.052 149.911 210.415C152.82 212.441 155.931 214.196 158.976 216.02C160.193 216.695 160.599 217.235 160.193 217.978C159.787 218.721 159.043 218.721 157.893 218.18C151.264 214.804 145.378 210.348 139.831 205.418C137.937 203.73 133.742 199.679 133.54 199.476C127.789 193.736 122.716 187.457 118.386 180.637C118.183 180.366 118.115 180.029 117.913 179.759C117.371 179.084 117.574 178.476 118.183 178.003C118.724 177.598 119.468 177.868 119.942 178.543C121.092 180.299 122.242 182.055 123.46 183.81C126.978 188.875 130.969 193.466 135.298 197.788C135.975 198.531 138.816 201.299 140.237 202.785Z" fill="#00CCCC"/>
<path d="M20.4301 186.984C16.7771 169.765 17.2506 152.614 20.6331 135.462C20.7007 135.057 20.7684 134.72 20.836 134.517C21.5125 132.221 23.3391 134.044 23.1361 135.057C21.8508 142.215 20.7684 149.373 20.3625 156.598C20.0242 163.418 20.2948 170.17 21.2419 176.923C21.6478 180.096 22.2567 183.203 22.7979 186.309C23.1361 188.064 20.7684 188.672 20.4301 186.984Z" fill="#00CCCC"/>
<path d="M144.093 28.4354C143.349 28.0978 142.808 27.8952 142.199 27.6251C138.14 26.1396 134.081 24.3839 129.954 23.236C125.625 22.0205 121.16 21.2778 116.695 20.535C110.066 19.5221 103.368 19.6572 96.671 20.1974C95.7916 20.2649 94.8445 20.4675 93.9651 20.535C93.2209 20.6025 92.5444 20.3999 92.4768 19.5221C92.3415 18.6443 92.8827 18.3067 93.6945 18.2391C96.6034 17.969 99.4447 17.4964 102.354 17.4964C106.21 17.4288 110.066 17.4288 113.854 17.834C118.319 18.3067 122.784 19.0494 127.113 20.0623C131.172 21.0077 135.096 22.4257 139.019 23.7087C140.846 24.3164 142.605 25.1267 144.296 26.0045C144.702 26.2071 145.04 26.8823 145.04 27.355C145.04 27.7602 144.431 28.0978 144.093 28.4354Z" fill="#00CCCC"/>
<path d="M162.493 64.0211C162.358 63.8861 162.29 63.6835 162.155 63.5484C157.555 58.214 152.684 53.2847 146.934 49.1656C143.822 46.9373 140.575 45.0466 136.99 43.6286C133.269 42.143 129.413 41.1302 125.422 40.59C122.107 40.1848 118.792 39.7121 115.477 39.6446C112.501 39.5771 109.456 39.8472 106.48 40.0498C100.933 40.5224 95.5206 41.8054 90.3792 43.7636C86.5232 45.2492 82.7349 47.0048 79.0141 48.828C73.7375 51.529 68.7991 54.7702 64.1313 58.4165C56.2163 64.5613 48.7749 71.3138 41.9423 78.674C37.4098 83.6034 33.1479 88.7353 29.4949 94.2723C24.9624 101.092 21.5123 108.453 19.0092 116.218C15.6268 126.752 13.1914 139.311 13.1237 139.582C12.7855 141 13.1237 139.582 12.4473 144.241C12.109 146.874 11.8384 149.508 11.7031 152.141C11.5002 156.935 11.2296 161.73 11.2972 166.456C11.5002 173.074 12.109 179.691 13.5296 186.174C13.8679 187.727 14.2061 189.347 14.6797 190.901C14.9503 192.386 17.1151 191.778 16.7768 190.293C16.6415 189.618 16.3033 188.605 15.7621 185.161C15.2209 181.582 14.4767 178.003 14.2061 174.357C13.8679 169.293 13.7326 164.161 13.7326 159.029C13.7326 153.424 14.2738 147.752 15.1532 142.215C16.1003 136.34 15.8974 137.826 16.2356 135.935C16.2356 135.733 16.3709 135.598 16.3709 135.395C17.7239 130.061 18.8739 124.726 20.4299 119.459C21.7152 115.273 23.4064 111.154 25.0977 107.102C27.8713 100.552 31.7273 94.6774 36.0569 89.0729C40.2511 83.6709 44.9189 78.674 49.8573 73.8798C54.931 68.9504 60.2753 64.2912 65.8902 60.0371C72.1816 55.1753 78.8788 50.9888 86.2526 47.9502C89.7027 46.5322 93.2205 45.1817 96.8059 44.3038C100.391 43.3585 104.112 42.8858 107.833 42.3456C112.771 41.6028 117.71 41.9405 122.648 42.5482C125.895 42.9533 129.142 43.8987 132.322 44.709C136.719 45.7894 140.575 47.9502 144.296 50.4486C149.369 53.8924 153.767 58.0789 157.893 62.6706C158.773 63.6835 159.652 64.6288 160.667 65.7768C161.546 66.7221 161.411 66.5871 162.087 67.3974C162.087 67.3974 163.035 68.8829 164.185 69.5582C164.32 69.6257 164.455 69.3556 164.59 69.4231C165.267 69.7607 165.943 69.8283 166.485 69.4231C166.417 69.0855 162.764 64.3587 162.493 64.0211Z" fill="#00CCCC"/>
<path d="M70.4905 4.32906C70.2199 4.59916 69.8817 5.07184 69.3405 5.34194C67.5139 6.48986 65.6198 7.57026 63.7932 8.71818C56.4871 13.3774 49.7222 18.6444 43.3632 24.519C40.4542 27.22 37.613 29.9885 34.7717 32.7571C34.2305 33.2973 33.6217 33.6349 32.8775 33.0947C32.2687 32.622 32.2687 31.9468 33.0128 31.1365C35.1776 28.9757 37.3424 26.8149 39.5748 24.7216C44.5808 20.0624 49.7222 15.6057 55.2694 11.7568C59.5313 8.71818 63.9285 5.94966 68.3257 3.18114C69.4081 2.50589 70.4905 2.97856 70.4905 4.32906Z" fill="#00CCCC"/>
<path d="M42.4837 227.432C37.2747 222.165 32.7422 216.29 29.0892 209.875C26.8567 205.959 25.0302 201.907 23.5419 197.653C23.136 196.505 22.7978 195.29 22.3919 194.142C21.8507 192.589 24.1508 191.846 24.692 193.602C26.7891 200.422 29.8333 206.836 33.6893 212.846C36.8012 217.573 40.3866 221.962 44.4456 225.946C45.2574 226.689 46.0015 227.499 46.8133 228.242C47.3545 228.715 47.4221 229.39 47.0162 229.93C46.5427 230.538 45.8662 230.47 45.2574 230.065C45.2574 229.998 42.4837 227.432 42.4837 227.432Z" fill="#00CCCC"/>
<path d="M37.6807 231.753C33.0129 227.094 28.9539 221.962 25.4361 216.357C22.7302 212.036 20.4301 207.512 18.5359 202.785C17.8594 201.097 17.3859 199.341 16.7094 197.653C15.6947 195.222 17.9947 194.614 19.0095 197.045C20.5654 200.692 21.9184 204.473 23.6096 208.052C26.7215 214.602 30.8481 220.544 35.6512 225.946C37.0042 227.432 38.4248 228.85 39.7778 230.335C40.4543 231.145 38.5601 232.631 37.6807 231.753Z" fill="#00CCCC"/>
<path d="M103.774 68.8828C108.577 69.1529 113.11 69.6256 117.507 71.0436C122.107 72.5292 126.572 74.4874 130.631 77.0533C131.24 77.4585 131.781 77.8636 132.322 78.3363C132.795 78.809 132.931 79.3492 132.525 79.8894C132.051 80.4296 131.51 80.5646 130.834 80.1595C128.601 78.809 126.369 77.3234 124.069 76.1755C118.251 73.2719 112.162 71.5838 105.6 71.3812C102.353 71.3137 99.1738 71.4488 95.9943 72.0565C95.2501 72.1915 94.7766 71.9214 94.5736 71.2462C94.3707 70.4359 94.7089 69.8957 95.5207 69.7606C96.9414 69.4905 98.4297 69.3555 99.8503 69.1529C101.271 69.0179 102.624 68.9503 103.774 68.8828Z" fill="#00CCCC"/>
<path d="M125.151 160.717C125.287 160.919 125.422 161.257 125.625 161.662C128.804 168.685 132.796 175.235 137.666 181.177C140.102 184.148 142.875 186.849 145.446 189.685C145.649 189.955 145.92 190.158 146.055 190.428C146.258 190.833 146.258 191.103 145.717 191.508C144.567 192.319 144.025 191.711 143.214 190.968C138.275 186.106 133.81 180.839 130.157 175.032C127.857 171.386 125.963 167.537 123.866 163.756C123.528 163.148 123.19 162.54 122.919 161.865C121.972 159.569 124.272 159.164 125.151 160.717Z" fill="#00CCCC"/>
<path d="M142.469 199.003C141.387 197.991 140.237 196.978 139.154 195.897C133.472 190.428 128.466 184.351 124.204 177.666C122.58 175.167 121.227 172.534 119.739 169.9C119.333 169.157 119.468 168.55 120.145 168.145C120.889 167.739 121.43 168.145 121.836 168.82C122.716 170.373 123.527 171.926 124.475 173.479C128.06 179.556 132.254 185.228 137.125 190.36C139.425 192.724 141.86 194.952 144.16 197.248C145.243 198.328 143.687 200.151 142.469 199.003Z" fill="#00CCCC"/>
<path d="M143.552 239.046C143.552 240.059 142.875 240.531 141.928 240.329C140.913 240.059 139.899 239.721 138.816 239.451C134.757 238.303 130.631 237.898 126.436 237.695C120.957 237.425 115.545 237.83 110.133 238.37C109.051 238.506 107.968 238.708 106.818 238.843C105.736 238.978 105.127 238.641 104.992 237.898C104.924 237.087 105.398 236.682 106.48 236.48C111.621 235.602 116.83 235.197 122.039 235.264C126.436 235.332 130.834 235.669 135.163 236.142C137.531 236.412 139.763 237.223 142.063 237.898C142.875 238.033 143.552 238.235 143.552 239.046Z" fill="#00CCCC"/>
<path d="M119.266 222.165C123.528 222.3 127.79 222.367 132.051 222.705C135.366 222.975 138.749 223.515 141.996 224.325C145.378 225.203 148.558 226.554 151.805 227.702C152.482 227.972 152.887 228.512 152.482 229.255C152.143 229.997 151.534 230.132 150.79 229.862C148.828 229.12 146.934 228.309 144.972 227.634C140.846 226.216 136.516 225.338 132.187 225.068C127.587 224.798 122.919 224.798 118.319 224.663C117.845 224.663 117.169 224.393 116.898 224.055C116.357 223.312 116.966 222.435 117.913 222.367C118.386 222.3 118.792 222.367 119.266 222.367C119.266 222.367 119.266 222.3 119.266 222.165Z" fill="#00CCCC"/>
<path d="M41.469 235.332C40.9279 234.859 40.4543 234.387 39.9808 233.981C38.7631 232.766 40.9279 231.55 41.9426 232.563C46.0692 236.412 50.5341 239.856 55.4724 242.692C59.4638 245.055 63.5904 247.014 68.0552 248.432C68.3935 248.499 68.6641 248.634 69.0023 248.769C69.6788 249.039 70.1523 249.512 69.8817 250.255C69.6112 250.998 69.0023 251.268 68.1905 250.998C66.6346 250.457 65.0786 249.917 63.5227 249.31C58.9226 247.486 54.593 245.191 50.6017 242.422C47.9634 240.599 45.4604 238.506 42.8897 236.547C41.8749 235.737 42.7544 236.48 41.469 235.332Z" fill="#00CCCC"/>
<path d="M67.7169 141.945C69.611 138.434 71.9111 135.395 75.2259 133.032C78.4731 130.736 82.0585 129.588 85.9822 129.453C86.794 129.385 87.4028 129.453 88.4175 129.52C89.1617 129.588 89.8382 129.655 90.447 129.723C92.8147 129.925 92.8824 132.491 90.2441 132.221C88.0793 132.019 85.9145 131.749 83.7497 132.086C79.9614 132.694 76.8495 134.517 74.2112 137.151C72.1817 139.176 70.6258 141.54 69.4081 144.173C68.8669 145.389 68.2581 145.659 67.6492 145.321C66.3639 144.713 67.0404 143.228 67.7169 141.945Z" fill="#00CCCC"/>
<path d="M122.445 250.66C117.71 250.525 113.042 250.998 108.442 251.74C106.48 252.078 104.451 252.483 102.489 252.821C101.542 253.023 100.798 252.686 100.73 251.943C100.595 251.065 101.068 250.66 101.88 250.458C107.563 249.242 113.245 248.432 118.995 248.229C121.904 248.162 124.881 248.297 127.79 248.229C128.737 248.229 129.346 248.972 129.346 249.512C129.346 250.255 128.737 250.66 127.722 250.66C125.963 250.66 124.204 250.66 122.445 250.66Z" fill="#00CCCC"/>
<path d="M147.746 148.495C147.949 148.697 148.422 149.035 148.625 149.508C150.384 152.749 152.075 156.125 153.902 159.299C155.864 162.675 158.367 165.714 161.073 168.55C161.343 168.82 161.546 169.09 161.817 169.36C162.358 169.9 162.426 170.576 161.885 171.116C161.343 171.656 160.667 171.656 160.193 171.048C157.893 168.347 155.458 165.781 153.428 162.945C151.264 159.907 149.572 156.53 147.678 153.289C147.137 152.411 146.799 151.398 146.393 150.453C145.987 149.373 146.393 148.495 147.746 148.495Z" fill="#00CCCC"/>
<path d="M88.8233 254.171C84.2908 254.306 79.826 253.631 75.2935 252.888C74.6846 252.821 74.0081 252.618 73.3993 252.416C72.7228 252.213 72.3169 251.808 72.4522 251.065C72.5875 250.322 73.1287 249.985 73.8728 250.12C75.0905 250.322 76.2406 250.592 77.3906 250.795C82.9378 251.808 88.4851 252.145 94.1 251.538C94.4382 251.47 94.8441 251.47 95.1823 251.538C95.7912 251.605 96.1971 251.875 96.2647 252.551C96.3324 253.226 96.0618 253.699 95.453 253.766C93.7617 253.969 92.0028 254.036 90.3116 254.171C89.8381 254.171 89.2969 254.171 88.8233 254.171Z" fill="#00CCCC"/>
<path d="M101 106.899C105.939 107.372 110.268 109.33 113.989 112.504C115.342 113.652 116.492 115.07 117.71 116.42C118.251 116.961 118.251 117.636 117.574 118.109C116.898 118.649 116.289 118.446 115.815 117.838C113.448 114.732 110.404 112.436 106.886 110.883C104.924 110.006 102.894 109.398 100.662 109.263C100.256 109.263 99.7149 109.128 99.4443 108.858C99.1737 108.587 98.9031 107.98 99.0384 107.71C99.1737 107.372 99.7149 107.102 100.121 106.899C100.324 106.764 100.662 106.899 101 106.899Z" fill="#00CCCC"/>
<path d="M147.475 200.151C150.993 202.582 154.443 205.148 157.961 207.512C159.449 208.524 161.14 209.335 162.696 210.145C163.373 210.483 163.779 211.023 163.441 211.833C163.17 212.508 162.426 212.778 161.614 212.373C155.931 209.537 150.655 206.026 145.852 201.974C144.972 201.164 146.393 199.409 147.475 200.151Z" fill="#00CCCC"/>
<path d="M149.708 193.669C150.384 194.074 150.993 194.614 151.67 195.087C155.999 198.666 160.599 201.704 165.538 204.27C165.808 204.405 166.214 204.608 166.282 204.811C166.417 205.216 166.553 205.823 166.35 206.161C166.147 206.499 165.402 206.769 165.064 206.634C164.185 206.364 163.373 205.891 162.561 205.418C158.164 203.055 154.105 200.219 150.249 197.113C146.528 194.614 148.49 192.994 149.708 193.669Z" fill="#00CCCC"/>
<path d="M123.189 241.612C127.587 241.747 131.916 241.949 136.178 242.962C136.99 243.165 137.531 243.435 137.463 244.38C137.396 245.123 136.719 245.528 135.772 245.326C130.901 244.178 125.963 244.11 121.025 244.178C120.619 244.178 120.145 244.11 119.875 243.84C119.604 243.57 119.401 243.03 119.469 242.692C119.536 242.355 120.01 241.949 120.416 241.882C121.295 241.679 122.242 241.679 123.189 241.612Z" fill="#00CCCC"/>
<path d="M65.1461 257.007C64.8078 256.94 64.6725 256.872 64.4696 256.805C61.6283 255.522 58.7871 254.306 55.9458 252.956C54.2545 252.146 52.631 251.2 50.9397 250.322C49.9926 249.782 49.7897 249.107 50.1279 248.499C50.5338 247.824 51.2103 247.756 52.0898 248.229C55.0663 249.715 57.9753 251.2 60.9518 252.618C62.2372 253.226 63.5225 253.631 64.8755 254.104C66.1608 254.576 66.4991 255.387 65.7549 256.467C65.6196 256.737 65.349 256.872 65.1461 257.007Z" fill="#00CCCC"/>
<path d="M177.715 156.26C177.376 156.733 177.241 157.273 176.903 157.341C176.429 157.476 175.753 157.408 175.347 157.138C173.25 155.45 171.153 153.762 169.191 151.939C167.838 150.723 166.755 149.305 165.538 147.887C164.861 147.077 164.861 146.469 165.47 145.929C166.146 145.389 166.62 145.524 167.364 146.334C169.461 148.562 171.626 150.791 173.791 152.884C174.603 153.694 175.617 154.302 176.564 155.045C177.038 155.382 177.309 155.787 177.715 156.26Z" fill="#00CCCC"/>
<path d="M163.373 187.524C166.147 189.145 168.853 190.833 171.626 192.453C172.37 192.859 172.641 193.399 172.303 194.142C171.897 194.952 171.153 194.952 170.544 194.547C168.176 193.264 165.876 191.913 163.576 190.563C163.035 190.293 162.561 189.955 162.02 189.55C160.261 188.267 162.088 186.579 163.373 187.524Z" fill="#00CCCC"/>
<path d="M160.87 193.804C163.441 195.29 165.944 196.775 168.515 198.261C169.259 198.666 169.665 199.206 169.259 200.016C168.853 200.759 168.109 200.827 167.364 200.354C164.794 198.868 162.155 197.383 159.652 195.83C158.164 194.885 159.111 192.791 160.87 193.804Z" fill="#00CCCC"/>
<path d="M39.372 238.978C39.9132 239.451 40.522 239.924 41.1309 240.396C42.7545 241.679 44.378 242.962 46.0693 244.178C47.084 244.92 47.287 245.461 46.8134 246.136C46.3399 246.811 45.5957 246.811 44.7163 246.136C42.4162 244.313 40.1161 242.49 37.8161 240.666C36.666 239.856 38.5602 238.303 39.372 238.978Z" fill="#00CCCC"/>
<path d="M122.513 193.736C122.242 194.074 122.039 194.547 121.701 194.682C121.295 194.817 120.686 194.682 120.416 194.412C119.469 193.399 118.589 192.251 117.71 191.103C116.898 190.09 116.222 189.01 115.477 187.929C115.275 187.659 115.139 187.389 115.072 187.051C115.004 186.511 115.004 185.971 115.68 185.633C116.289 185.363 116.763 185.633 117.101 186.106C117.98 187.322 118.86 188.537 119.807 189.752C120.551 190.698 121.295 191.643 121.972 192.589C122.175 192.994 122.31 193.331 122.513 193.736Z" fill="#00CCCC"/>
<path d="M162.291 67.2622C162.764 67.7349 163.238 68.2076 163.711 68.6802C164.253 69.2204 164.861 69.4905 165.606 69.0854C166.079 68.8153 166.417 69.0179 166.62 69.423C167.635 70.9086 168.582 72.3941 169.529 73.8797C169.935 74.4874 169.8 75.0951 169.123 75.5678C168.515 76.0405 167.973 75.7704 167.567 75.2302C165.876 72.6642 164.05 69.9632 162.291 67.2622C162.291 67.3297 162.223 67.3297 162.291 67.2622Z" fill="#00CCCC"/>
<path d="M174.535 180.029C174.603 180.974 173.723 181.514 172.844 181.042C171.694 180.434 170.544 179.691 169.461 178.948C168.447 178.273 167.5 177.598 166.62 176.788C166.349 176.518 166.214 175.91 166.349 175.505C166.417 175.235 166.891 174.694 167.229 174.829C169.191 175.235 174.467 179.219 174.535 180.029Z" fill="#00CCCC"/>
<path d="M112.163 190.63C112.298 190.698 112.704 190.833 112.907 191.103C113.448 191.778 114.057 192.454 114.395 193.196C114.598 193.534 114.395 194.344 114.057 194.614C113.786 194.884 112.907 194.884 112.636 194.614C111.96 194.007 111.419 193.196 110.945 192.386C110.607 191.508 111.08 190.698 112.163 190.63Z" fill="#00CCCC"/>
<path d="M76.1055 162.54C76.4437 159.704 76.579 156.733 77.2555 153.964C78.0673 150.25 79.4879 146.672 82.3969 143.903C83.8851 142.485 85.7117 142.215 86.7941 143.565C87.3353 144.241 87.7411 145.254 87.7411 146.131C87.8088 147.549 87.5382 149.035 87.3353 150.453C87.0647 152.074 86.6588 153.694 86.3882 155.315C85.9146 158.218 85.5087 161.122 85.1028 163.958C85.0352 164.228 84.9675 164.431 84.8999 164.701C84.7646 165.511 84.2234 165.714 83.5469 165.579C82.8027 165.443 82.5998 164.903 82.6674 164.296C83.2763 160.379 83.8175 156.463 84.494 152.546C84.7646 150.926 85.0352 149.373 85.3058 147.752C85.3734 147.347 85.4411 146.942 85.3734 146.604C85.3058 146.131 85.0352 145.659 84.8999 145.186C84.494 145.456 83.9528 145.591 83.6145 145.929C81.8557 147.819 80.8409 150.115 80.0291 152.546C78.6085 157.003 78.4055 161.595 78.9467 166.119C79.2173 168.617 79.6909 171.116 81.0439 173.344C82.5322 175.842 84.8322 175.032 85.7793 173.141C86.4558 171.791 86.997 170.373 87.4029 168.887C88.35 165.376 89.2294 161.932 89.9059 158.353C90.4471 155.652 90.5824 152.884 90.853 150.115C90.9207 149.575 90.7854 148.967 91.056 148.427C91.1913 148.09 91.7325 147.752 92.1383 147.819C92.4766 147.819 93.0178 148.292 93.0854 148.562C93.2884 149.643 93.4237 150.791 93.2884 151.938C93.0178 154.302 92.7472 156.733 92.2736 159.096C91.7324 161.865 90.9207 164.633 90.2442 167.402C89.8383 169.09 89.4324 170.778 88.8235 172.466C88.2823 174.087 87.4029 175.64 85.847 176.518C83.2086 178.003 80.3674 176.99 78.8791 174.222C77.1202 170.913 76.7143 167.334 76.4437 163.688C76.4437 163.283 76.4437 162.81 76.4437 162.405C76.3084 162.607 76.1731 162.607 76.1055 162.54Z" fill="#00CCCC"/>
<path d="M6.2239 99.7417C6.0886 99.7417 5.88565 99.6741 5.75036 99.6066C5.14151 99.3365 4.87092 98.6613 5.14151 98.0535C17.0478 71.9214 48.9782 40.7924 74.8879 30.0559C86.9295 25.0591 101.136 23.0333 114.733 24.3163C129.819 25.7343 143.687 31.0688 154.782 39.7795C155.323 40.1846 155.391 40.9274 154.985 41.4001C154.579 41.9403 153.835 42.0078 153.361 41.6027C129.413 22.8983 97.1445 23.4385 75.7674 32.2842C50.3312 42.8181 19.0096 73.4069 7.30629 99.0664C7.10334 99.4716 6.6298 99.7417 6.2239 99.7417Z" fill="#00CCCC"/>
<path d="M176.294 175.37C176.091 175.37 175.888 175.302 175.685 175.167C166.891 169.698 160.87 163.755 156.202 155.99C151.534 148.09 147.746 137.623 143.958 121.957C143.822 121.35 144.228 120.675 144.837 120.539C145.446 120.404 146.122 120.81 146.258 121.417C153.293 150.926 160.464 163.013 176.903 173.209C177.444 173.547 177.647 174.289 177.309 174.83C177.038 175.235 176.632 175.37 176.294 175.37Z" fill="#00CCCC"/>
</svg>
