<?xml version="1.0" encoding="utf-8"?>
<!-- Generator: Adobe Illustrator 24.0.1, SVG Export Plug-In . SVG Version: 6.00 Build 0)  -->
<svg version="1.1" id="Layer_1" xmlns="http://www.w3.org/2000/svg" xmlns:xlink="http://www.w3.org/1999/xlink" x="0px" y="0px"
	 viewBox="0 0 512 512" style="enable-background:new 0 0 512 512;" xml:space="preserve">
<g id="five_x2C__gesture_x2C__hand_x2C__stop_3_">
	<g>
		<path d="M273.2,496c-11,0-23-1.1-36-3.8c-4.6-0.8-9.4-1.6-14.1-2.4c-32.6-5.3-66.2-10.7-89.9-47.4c-13.9-21.6-28-49.9-41.6-83.8
			c-11.8-29.6-29.3-55.7-51.5-77.3l-22.9-22.1c-2.7-2.6-3.2-6.7-1.3-9.9c7.7-12.5,20.2-21,34.4-23.4c14.1-2.2,28.2,1.6,38.9,10.6
			c19.4,16,37.6,37.8,49.8,52.8c2.9,3.7,6.4,6.1,9.4,5.6c3.2-0.2,5.4-2.7,6.9-4.8c9.8-15.2,16-38.6,15.7-59.5l0.3-161.3
			C171,53,183,35.8,203.3,35.5c9.6-0.2,17.3,3,23.5,9.3c6.1,6.1,9.8,14.7,9.6,22.4l1.8,148.6c0,0.8,0.2,3,0,3.7
			c0.3-0.3,0.8-1.1,1.4-3.8l37.3-174.1c3.8-16.6,22.4-28.6,39.8-25.3c19.7,3.8,32.6,21.3,29.3,39.7l-37,178.7
			c-0.5,1.9-0.5,3.2-0.5,3.7c0.5-0.5,1.1-1.4,1.9-3.7l64-153.6c3.2-7.5,9.3-13.3,17.1-16.5c8-3.2,17.1-3.2,24.8,0.2
			c15.4,6.4,23.4,24.5,17.8,40.5l-59.7,156.5c-0.3,1-1.4,4-1.9,4.8c1-0.5,2.6-3,3.2-4.2l66.6-109.8c8.2-13.4,25.1-17.9,39.5-10.4
			c7.4,3.8,13.1,10.6,15.5,18.6c2.2,7.4,1.4,14.9-2.2,21.6L426,306.2c-5,8.2-9.1,23.7-13.9,41.8C397.2,404.8,373,496,273.2,496
			L273.2,496z M467.3,154.6c-4.6,0-9,2.2-11.4,6.2l-66.6,110.1c-8.6,14.4-18.4,12.3-23.5,9.8c-5.9-2.9-11.7-9.6-6.2-24.5l59.5-156.5
			c2.7-7.7-1.4-17-9.1-20.2c-3.8-1.6-8.5-1.6-12.6,0c-3.8,1.4-6.9,4.3-8.2,7.7l-64,153.4c-6.4,16.3-17.9,14.1-21.1,13.1
			c-7.2-1.9-13.8-8.8-10.9-22.4L330.3,53c1.4-8.3-4.3-18.6-16.6-21c-9-1.6-19.4,4.6-21.1,13l-37.4,174.6
			c-3.5,14.7-12.8,16.2-18.1,15.7c-6.1-0.6-13.8-4.3-15-19.4l-1.8-148.6c0-2.9-1.4-7.4-5-10.9c-3.2-3.2-7.2-5-11.8-4.6
			c-13.6,0.3-16.3,13-16.3,17.6l-0.5,161.6c0.3,24.2-6.6,50.2-18.2,68.3c-5,7.5-11.8,11.8-19.5,12.2c-8.3,0.3-16.5-3.8-22.7-11.5
			c-11.7-14.4-29.3-35.4-47.5-50.6c-7-6.1-16.5-8.6-25.9-7c-7.5,1.3-14.4,5.1-19.5,10.9l17.9,17.3c24,23.2,42.6,51,55.4,82.7
			c13.3,33,26.9,60.3,40.3,81.1c19.8,30.7,47.4,35.2,79,40.3c4.8,0.8,9.6,1.4,14.4,2.4c115.8,21.4,139.4-67.8,156.5-133
			c5.1-19.4,9.6-36,15.7-45.9l69-123.5c1.9-3.5,1.4-6.9,0.8-9.1c-1.1-3.8-4-7.2-7.7-9.1c-0.2,0-0.2,0-0.2,0
			C471.9,155.2,469.7,154.6,467.3,154.6L467.3,154.6z"/>
	</g>
</g>
</svg>
