<svg width="20" height="20" viewBox="0 0 20 20" fill="none" xmlns="http://www.w3.org/2000/svg">
<path d="M5 5.20825V6.87492" stroke="#003366" stroke-width="1.25" stroke-linecap="round" stroke-linejoin="round"/>
<path d="M18.3333 10.0001V7.50008C18.3333 3.33341 16.6666 1.66675 12.5 1.66675H7.49996C3.33329 1.66675 1.66663 3.33341 1.66663 7.50008V12.5001C1.66663 16.6667 3.33329 18.3334 7.49996 18.3334H9.99996" stroke="#003366" stroke-width="1.25" stroke-linecap="round" stroke-linejoin="round"/>
<path d="M8.33337 5.20825V6.87492" stroke="#003366" stroke-width="1.25" stroke-linecap="round" stroke-linejoin="round"/>
<path d="M5 13.3333V14.9999" stroke="#003366" stroke-width="1.25" stroke-linecap="round" stroke-linejoin="round"/>
<path d="M8.33337 13.3333V14.9999" stroke="#003366" stroke-width="1.25" stroke-linecap="round" stroke-linejoin="round"/>
<path d="M11.6666 6.04175H15" stroke="#003366" stroke-width="1.25" stroke-linecap="round" stroke-linejoin="round"/>
<path d="M1.66663 10H18.3333" stroke="#003366" stroke-width="1.25" stroke-linecap="round" stroke-linejoin="round"/>
<path d="M17.9667 16.9416C17.5 17.7499 16.625 18.2916 15.625 18.2916C14.1334 18.2916 13.2167 16.7916 13.2167 16.7916M13.275 14.2416C13.7417 13.4249 14.6167 12.8833 15.625 12.8833C17.4334 12.8833 18.3334 14.3832 18.3334 14.3832M18.3334 12.7083V14.3749H16.6667M14.8833 16.7833H13.2167V18.3333" stroke="#003366" stroke-width="1.25" stroke-linecap="round" stroke-linejoin="round"/>
</svg>
